# xmcd CD database file
#
# Track frame offsets:
#	183
#	51918
#	98485
#	135810
#	180373
#	222048
#	275088
#	298650
#
# Disc length: 4590 seconds
#
# Revision: 0
# Processed by: cddbd v1.5.1PL0 Copyright (c) Steve Scherf et al.
# Submitted via: CDex 1.51
#
DISCID=6c11ec08
DTITLE=Cecil Taylor - Dizionario Enciclopedico del Jazz - Volume 67
DYEAR=1992
DGENRE=Jazz
TTITLE0=Cell Walk For Celeste (Take 1)
TTITLE1=Section C (Take 1)
TTITLE2=Jumpin' Punkins (Take 5)
TTITLE3=Cell Walk For Celeste (Take 3)
TTITLE4=O.P.
TTITLE5=Cell Walk For Celeste (Take 2)
TTITLE6=Cindy's Main Mood
TTITLE7=Things Ain't What They Used To Be
EXTD=YEAR: 1992
EXTT0=
EXTT1=
EXTT2=
EXTT3=
EXTT4=
EXTT5=
EXTT6=
EXTT7=
PLAYORDER=
